<svg version="1.1" viewBox="0.0 0.0 100.0 100.0" fill="none" stroke="none" stroke-linecap="square" stroke-miterlimit="10" xmlns:xlink="http://www.w3.org/1999/xlink" xmlns="http://www.w3.org/2000/svg"><clipPath id="p.0"><path d="m0 0l100.0 0l0 100.0l-100.0 0l0 -100.0z" clip-rule="nonzero"/></clipPath><g clip-path="url(#p.0)"><path fill="#000000" fill-opacity="0.0" d="m0 0l100.0 0l0 100.0l-100.0 0z" fill-rule="evenodd"/><path fill="#000000" fill-opacity="0.0" d="m-13.981627 -16.622047l131.71654 0l0 96.37795l-131.71654 0z" fill-rule="evenodd"/><path fill="#ffffff" d="m21.056322 74.28358q-6.062501 0 -9.375001 -3.0625q-3.3125 -3.078125 -3.3125 -8.703125l0 -22.59375l-6.71875 0l0 -10.171875l6.71875 0l0 -9.234375q6.046875 -1.015625 11.750001 -1.515625l0 10.75l10.921875 0l0 10.171875l-10.921875 0l0 20.40625q0 3.609375 4.03125 3.609375q2.359375 0 5.375 -1.078125l2.609373 8.890625q-5.374998 2.53125 -11.078123 2.53125zm26.706038 17.546875q-2.109375 0 -4.078125 -0.5q-1.96875 -0.5 -3.984375 -1.34375l1.765625 -9.75q3.1875 1.59375 5.375 1.59375q2.765625 0 4.0625 -1.9375q1.3125 -1.921875 2.65625 -5.609375l-16.890625 -44.359375l12.265625 -1.0l10.328125 30.984375l9.578125 -30.15625l11.6875 0q-1.859375 5.640625 -4.046875 11.9375q-2.171875 6.296875 -4.484375 12.640625q-2.3125 6.34375 -4.5 12.015625q-2.1875 5.65625 -4.125 10.109375q-1.921875 4.453125 -3.34375 7.0625q-2.265625 4.03125 -5.125 6.171875q-2.859375 2.140625 -7.140625 2.140625zm42.16368 -15.953125q-3.53125 0 -6.09375 -2.5625q-2.5625 -2.5625 -2.5625 -6.09375q0 -3.609375 2.5625 -6.171875q2.5625 -2.5625 6.09375 -2.5625q3.609375 0 6.125 2.5625q2.53125 2.5625 2.53125 6.171875q0 3.53125 -2.53125 6.09375q-2.515625 2.5625 -6.125 2.5625z" fill-rule="nonzero"/></g></svg>